<svg id="svg" version="1.1" xmlns="http://www.w3.org/2000/svg" xmlns:xlink="http://www.w3.org/1999/xlink" width="150" height="150" viewBox="0, 0, 400,400"><g id="svgg"><path id="path0" d="M190.400 9.756 C 190.400 9.842,191.017 9.985,191.772 10.073 C 192.527 10.161,193.056 10.090,192.948 9.916 C 192.755 9.603,190.400 9.455,190.400 9.756 M194.433 10.543 C 194.876 10.922,197.217 11.151,196.996 10.794 C 196.862 10.577,196.193 10.400,195.510 10.400 C 194.826 10.400,194.342 10.464,194.433 10.543 M238.200 26.599 C 240.392 28.331,241.984 29.148,242.253 28.680 C 242.404 28.416,242.387 28.327,242.215 28.483 C 242.042 28.638,241.338 28.346,240.651 27.833 C 239.100 26.677,236.891 25.564,238.200 26.599 M78.229 29.009 C 77.805 29.329,77.535 29.668,77.629 29.761 C 77.723 29.855,78.225 29.587,78.744 29.166 C 79.838 28.279,79.379 28.139,78.229 29.009 M247.430 32.349 C 247.854 32.761,248.346 33.013,248.524 32.910 C 248.702 32.807,248.522 32.476,248.124 32.174 C 247.048 31.359,246.543 31.486,247.430 32.349 M249.200 33.351 C 249.200 33.434,249.470 33.726,249.800 34.000 C 250.291 34.408,250.400 34.380,250.400 33.849 C 250.400 33.492,250.130 33.200,249.800 33.200 C 249.470 33.200,249.200 33.268,249.200 33.351 M251.400 35.200 C 251.536 35.420,251.900 35.600,252.210 35.600 C 252.519 35.600,252.965 35.960,253.200 36.400 C 253.636 37.216,254.800 37.516,254.800 36.813 C 254.800 36.599,254.530 36.529,254.200 36.655 C 253.870 36.782,253.600 36.673,253.600 36.414 C 253.600 36.155,253.343 35.686,253.029 35.371 C 252.384 34.727,251.019 34.583,251.400 35.200 M255.371 37.952 C 255.371 38.707,256.107 38.853,256.688 38.214 C 256.860 38.026,256.775 38.001,256.500 38.159 C 256.191 38.337,256.000 38.209,256.000 37.824 C 256.000 37.481,255.859 37.200,255.686 37.200 C 255.513 37.200,255.371 37.538,255.371 37.952 M256.800 39.372 C 256.800 39.687,257.205 40.002,257.700 40.072 C 258.301 40.158,258.561 40.433,258.482 40.900 C 258.418 41.285,258.575 41.600,258.833 41.600 C 259.090 41.600,258.726 42.095,258.023 42.700 C 257.321 43.305,253.810 46.747,250.221 50.348 C 246.632 53.949,242.976 57.616,242.096 58.496 C 241.216 59.376,237.526 63.066,233.896 66.696 C 225.724 74.870,224.754 75.839,216.645 83.948 C 213.043 87.549,209.376 91.216,208.496 92.096 C 207.616 92.976,203.926 96.666,200.296 100.296 C 196.666 103.926,192.976 107.616,192.096 108.496 C 191.216 109.376,187.526 113.066,183.896 116.696 C 180.266 120.326,176.397 124.197,175.297 125.297 C 174.197 126.397,170.326 130.266,166.696 133.896 C 163.066 137.526,159.399 141.195,158.548 142.049 C 157.697 142.903,155.155 145.395,152.900 147.587 C 148.176 152.178,148.181 152.170,150.700 151.807 C 153.488 151.405,157.914 151.445,160.200 151.894 C 162.532 152.351,163.207 152.581,166.800 154.141 C 168.712 154.972,171.411 156.941,173.200 158.812 C 191.280 177.718,173.937 207.818,148.800 201.160 C 136.426 197.883,127.130 183.071,130.464 171.944 C 131.121 169.751,130.662 169.638,128.914 171.564 C 125.959 174.820,123.178 177.600,122.878 177.600 C 122.178 177.600,118.334 174.191,111.245 167.285 C 106.301 162.469,105.721 162.214,107.502 165.636 C 108.568 167.686,108.959 168.797,109.968 172.646 C 110.779 175.738,110.408 181.409,109.187 184.600 C 109.019 185.040,108.646 186.030,108.360 186.800 C 103.370 200.214,84.868 206.382,72.518 198.749 C 69.938 197.155,70.749 198.350,75.722 203.467 C 78.465 206.290,81.225 209.170,81.855 209.866 C 85.126 213.482,85.600 214.058,85.600 214.418 C 85.600 214.764,81.413 219.184,75.246 225.349 C 73.051 227.542,61.155 239.436,58.496 242.096 C 57.616 242.976,53.926 246.666,50.296 250.296 C 46.666 253.926,42.976 257.616,42.096 258.496 C 35.088 265.503,26.867 273.727,25.297 275.300 C 17.314 283.298,11.899 288.385,11.579 288.187 C 11.371 288.058,11.159 288.458,11.110 289.076 C 11.060 289.694,10.919 285.250,10.797 279.200 C 10.615 270.175,10.562 272.054,10.500 289.662 C 10.434 308.616,10.497 311.151,11.038 311.359 C 11.375 311.489,11.546 311.763,11.419 311.970 C 11.291 312.176,11.370 312.458,11.593 312.596 C 11.817 312.734,12.000 313.102,12.000 313.413 C 12.000 314.162,15.457 317.600,16.211 317.600 C 16.535 317.600,16.800 317.780,16.800 318.000 C 16.800 318.220,17.340 318.400,18.000 318.400 C 18.660 318.400,19.200 318.580,19.200 318.800 C 19.200 319.063,29.000 319.200,47.800 319.200 C 66.600 319.200,76.400 319.337,76.400 319.600 C 76.400 319.847,78.459 320.000,81.776 320.000 C 84.929 320.000,87.255 320.165,87.400 320.400 C 87.536 320.620,89.156 320.800,91.000 320.800 C 92.844 320.800,94.464 320.980,94.600 321.200 C 94.736 321.420,96.086 321.600,97.600 321.600 C 99.114 321.600,100.464 321.780,100.600 322.000 C 100.736 322.220,101.906 322.400,103.200 322.400 C 104.494 322.400,105.664 322.580,105.800 322.800 C 105.936 323.020,106.991 323.200,108.144 323.200 C 109.297 323.200,110.411 323.363,110.620 323.561 C 111.003 323.926,111.438 323.997,118.500 324.854 C 120.645 325.114,122.400 325.479,122.400 325.664 C 122.400 325.849,123.300 326.000,124.400 326.000 C 125.500 326.000,126.400 326.180,126.400 326.400 C 126.400 326.620,127.210 326.800,128.200 326.800 C 129.190 326.800,130.000 326.980,130.000 327.200 C 130.000 327.420,130.979 327.600,132.176 327.600 C 133.373 327.600,134.464 327.780,134.600 328.000 C 134.736 328.220,136.097 328.400,137.624 328.400 C 139.208 328.400,140.400 328.572,140.400 328.800 C 140.400 329.037,141.859 329.200,143.976 329.200 C 146.165 329.200,147.659 329.372,147.827 329.644 C 148.374 330.529,173.883 329.213,184.113 327.772 C 194.841 326.261,209.488 322.673,215.800 320.010 C 216.240 319.824,218.670 318.861,221.200 317.870 C 228.105 315.164,234.082 312.254,242.600 307.451 C 244.362 306.458,249.813 303.013,250.000 302.774 C 250.110 302.634,250.643 302.286,251.185 302.000 C 253.390 300.838,262.868 293.527,268.000 289.030 C 273.195 284.478,281.774 275.369,286.674 269.200 C 286.936 268.870,287.938 267.610,288.900 266.400 C 291.990 262.513,297.228 254.675,300.060 249.700 C 300.467 248.985,301.183 247.725,301.652 246.900 C 306.765 237.893,311.722 226.097,314.803 215.600 C 315.287 213.950,315.830 212.150,316.010 211.600 C 316.323 210.642,317.656 205.163,318.395 201.800 C 318.736 200.246,319.201 197.632,319.977 192.900 C 322.471 177.698,321.945 149.390,318.982 139.345 C 318.844 138.875,318.900 138.385,319.108 138.257 C 319.556 137.980,319.262 133.967,318.753 133.420 C 318.559 133.211,318.400 132.457,318.400 131.744 C 318.400 131.031,318.220 130.336,318.000 130.200 C 317.780 130.064,317.600 129.344,317.600 128.600 C 317.600 127.856,317.420 127.136,317.200 127.000 C 316.980 126.864,316.800 126.234,316.800 125.600 C 316.800 124.966,316.620 124.336,316.400 124.200 C 316.180 124.064,316.000 123.423,316.000 122.776 C 316.000 122.129,315.820 121.600,315.600 121.600 C 315.380 121.600,315.200 121.060,315.200 120.400 C 315.200 119.740,315.020 119.200,314.800 119.200 C 314.580 119.200,314.400 118.660,314.400 118.000 C 314.400 117.340,314.220 116.800,314.000 116.800 C 313.780 116.800,313.600 116.260,313.600 115.600 C 313.600 114.940,313.420 114.400,313.200 114.400 C 312.980 114.400,312.800 113.860,312.800 113.200 C 312.800 112.540,312.620 112.000,312.400 112.000 C 312.180 112.000,312.000 111.550,312.000 111.000 C 312.000 110.450,311.820 110.000,311.600 110.000 C 311.380 110.000,311.200 109.640,311.200 109.200 C 311.200 108.760,311.020 108.400,310.800 108.400 C 310.580 108.400,310.400 107.860,310.400 107.200 C 310.400 106.540,310.220 106.000,310.000 106.000 C 309.780 106.000,309.600 105.640,309.600 105.200 C 309.600 104.760,309.436 104.400,309.235 104.400 C 309.034 104.400,308.749 103.680,308.600 102.800 C 308.451 101.920,308.166 101.200,307.965 101.200 C 307.764 101.200,307.600 100.933,307.600 100.606 C 307.600 99.586,303.002 90.735,302.333 90.467 C 302.150 90.393,302.000 89.988,302.000 89.567 C 302.000 89.145,301.820 88.800,301.600 88.800 C 301.380 88.800,301.200 88.440,301.200 88.000 C 301.200 87.560,301.020 87.200,300.800 87.200 C 300.580 87.200,300.400 86.964,300.400 86.675 C 300.400 86.387,300.040 85.764,299.600 85.292 C 299.160 84.820,298.800 84.238,298.800 84.000 C 298.800 83.762,298.440 83.180,298.000 82.708 C 297.560 82.236,297.200 81.613,297.200 81.325 C 297.200 81.036,297.020 80.800,296.800 80.800 C 296.580 80.800,296.400 80.530,296.400 80.200 C 296.400 79.870,296.220 79.600,296.000 79.600 C 295.780 79.600,295.600 79.330,295.600 79.000 C 295.600 78.670,295.420 78.400,295.200 78.400 C 294.980 78.400,294.800 78.130,294.800 77.800 C 294.800 77.470,294.620 77.200,294.400 77.200 C 294.180 77.200,294.000 76.970,294.000 76.688 C 294.000 76.407,293.640 75.917,293.200 75.600 C 292.760 75.283,292.400 74.793,292.400 74.512 C 292.400 74.230,292.242 74.000,292.049 74.000 C 291.855 74.000,291.462 73.433,291.175 72.740 C 290.888 72.047,290.056 70.883,289.327 70.153 C 288.597 69.424,288.000 68.685,288.000 68.511 C 288.000 68.338,287.280 67.431,286.400 66.497 C 285.520 65.563,284.800 64.640,284.800 64.446 C 284.800 64.252,283.630 62.888,282.200 61.415 C 280.770 59.942,279.600 58.883,279.600 59.061 C 279.600 59.240,279.115 58.669,278.522 57.793 C 277.929 56.917,276.111 54.940,274.481 53.400 C 272.852 51.860,270.566 49.666,269.401 48.525 C 268.236 47.384,267.175 46.559,267.042 46.692 C 266.909 46.825,266.800 46.614,266.800 46.224 C 266.800 45.747,266.596 45.593,266.179 45.753 C 265.838 45.884,265.661 45.825,265.786 45.623 C 266.183 44.981,265.193 44.709,264.482 45.266 C 263.886 45.733,263.861 45.721,264.286 45.176 C 264.910 44.375,263.622 43.087,262.749 43.640 C 261.799 44.242,261.362 44.004,262.200 43.341 C 262.763 42.895,262.850 42.652,262.493 42.518 C 262.214 42.414,261.732 42.075,261.421 41.764 C 261.111 41.454,260.639 41.200,260.372 41.200 C 260.105 41.200,259.371 40.660,258.740 40.000 C 257.495 38.697,256.800 38.472,256.800 39.372 M54.617 46.124 C 53.450 46.834,52.688 47.600,53.149 47.600 C 53.373 47.600,54.060 47.156,54.678 46.613 C 55.889 45.547,55.866 45.364,54.617 46.124 M40.198 60.159 C 39.979 60.466,39.383 61.276,38.873 61.959 C 37.471 63.835,38.102 63.446,39.779 61.400 C 40.590 60.410,41.106 59.600,40.925 59.600 C 40.744 59.600,40.417 59.851,40.198 60.159 M232.600 152.606 C 256.993 160.515,257.320 193.337,233.084 201.122 C 224.984 203.724,212.362 200.124,207.382 193.791 C 206.732 192.965,205.982 192.064,205.716 191.789 C 201.167 187.091,199.505 175.349,202.377 168.200 C 203.230 166.077,204.582 163.555,205.254 162.834 C 205.664 162.394,206.000 161.877,206.000 161.686 C 206.000 161.296,210.581 156.800,210.979 156.800 C 211.119 156.800,211.620 156.440,212.092 156.000 C 212.564 155.560,213.187 155.200,213.475 155.200 C 213.764 155.200,214.000 155.041,214.000 154.847 C 214.000 154.652,214.315 154.398,214.700 154.282 C 215.085 154.165,216.480 153.668,217.800 153.177 C 221.841 151.672,228.884 151.401,232.600 152.606 M9.865 258.200 C 10.132 259.971,10.231 260.208,10.507 259.727 C 10.610 259.547,10.454 258.770,10.159 258.000 L 9.624 256.600 9.865 258.200 " stroke="none" fill="#44cdf9" fill-rule="evenodd"></path><path id="path1" d="M375.200 182.993 C 375.200 183.136,375.385 183.599,375.612 184.022 C 376.151 185.030,375.331 186.310,372.291 189.200 C 371.018 190.410,367.394 193.987,364.238 197.149 C 361.081 200.311,357.238 204.158,355.698 205.698 C 354.158 207.238,350.288 211.108,347.098 214.298 C 343.908 217.488,340.218 221.178,338.898 222.498 C 337.578 223.818,333.888 227.508,330.698 230.698 C 327.508 233.888,323.818 237.578,322.498 238.898 C 321.178 240.218,317.488 243.908,314.298 247.098 C 311.108 250.288,307.238 254.158,305.698 255.698 C 304.158 257.238,300.288 261.108,297.098 264.298 C 293.908 267.488,290.218 271.178,288.898 272.498 C 287.578 273.818,283.888 277.508,280.698 280.698 C 277.508 283.888,273.818 287.578,272.498 288.898 C 271.178 290.218,267.488 293.908,264.298 297.098 C 261.108 300.288,257.238 304.158,255.698 305.698 C 254.158 307.238,250.288 311.108,247.098 314.298 C 243.908 317.488,240.218 321.178,238.898 322.498 C 237.578 323.818,233.888 327.508,230.698 330.698 C 227.508 333.888,223.818 337.578,222.498 338.898 C 219.700 341.695,209.751 351.645,205.698 355.698 C 196.186 365.212,193.466 367.700,192.578 367.700 C 192.066 367.700,191.562 367.921,191.459 368.191 C 191.251 368.732,192.592 370.075,192.966 369.700 C 193.095 369.572,193.200 369.677,193.200 369.933 C 193.200 370.190,193.470 370.400,193.800 370.400 C 194.130 370.400,194.400 370.568,194.400 370.773 C 194.400 370.978,194.805 371.274,195.300 371.430 C 195.795 371.587,196.491 372.049,196.847 372.457 C 197.203 372.866,197.698 373.200,197.947 373.200 C 198.196 373.200,198.400 373.363,198.400 373.563 C 198.400 373.762,198.788 373.824,199.263 373.700 C 199.872 373.540,200.037 373.616,199.826 373.958 C 199.631 374.273,199.958 374.605,200.763 374.909 C 201.444 375.165,202.000 375.516,202.000 375.688 C 202.000 375.859,202.360 376.000,202.800 376.000 C 203.240 376.000,203.600 376.180,203.600 376.400 C 203.600 376.620,203.926 376.800,204.325 376.800 C 204.723 376.800,205.436 377.160,205.908 377.600 C 206.380 378.040,206.934 378.400,207.138 378.400 C 207.829 378.400,209.590 379.477,209.327 379.739 C 209.184 379.883,209.536 380.000,210.110 380.000 C 210.683 380.000,211.264 380.180,211.400 380.400 C 211.536 380.620,212.007 380.800,212.447 380.800 C 212.887 380.800,213.136 380.980,213.000 381.200 C 212.864 381.420,213.036 381.600,213.382 381.600 C 213.728 381.600,214.323 381.759,214.705 381.953 C 215.087 382.148,215.940 382.529,216.600 382.800 C 217.260 383.071,218.113 383.452,218.495 383.647 C 218.877 383.841,219.462 384.000,219.795 384.000 C 220.128 384.000,220.400 384.180,220.400 384.400 C 220.400 384.620,220.852 384.800,221.405 384.800 C 221.958 384.800,222.768 384.980,223.205 385.200 C 223.642 385.420,224.358 385.780,224.795 386.000 C 225.232 386.220,225.941 386.400,226.371 386.400 C 226.801 386.400,227.264 386.580,227.400 386.800 C 227.536 387.020,228.042 387.203,228.524 387.206 C 229.481 387.213,232.220 388.087,232.659 388.526 C 232.810 388.677,233.345 388.800,233.847 388.800 C 234.350 388.800,235.805 389.089,237.080 389.443 C 238.356 389.796,240.161 390.116,241.091 390.154 C 242.022 390.192,242.981 390.421,243.223 390.663 C 243.465 390.905,244.288 391.019,245.051 390.916 C 245.815 390.814,246.745 390.863,247.120 391.026 C 247.494 391.190,248.879 391.401,250.197 391.495 C 251.515 391.589,252.685 391.796,252.797 391.953 C 252.909 392.111,255.594 392.287,258.764 392.344 C 261.934 392.401,265.304 392.593,266.254 392.771 C 267.204 392.948,267.893 392.950,267.784 392.774 C 267.676 392.599,267.770 392.342,267.993 392.204 C 268.217 392.066,268.400 392.143,268.400 392.376 C 268.400 392.609,268.670 392.800,269.000 392.800 C 269.330 392.800,269.603 392.575,269.606 392.300 C 269.610 391.964,269.709 391.941,269.906 392.229 C 270.440 393.008,271.529 393.167,272.049 392.542 C 272.376 392.147,273.024 391.985,273.878 392.085 C 274.775 392.190,275.200 392.072,275.200 391.720 C 275.200 390.910,276.796 391.087,276.825 391.900 C 276.845 392.440,276.933 392.396,277.210 391.707 C 277.407 391.216,280.681 387.749,284.485 384.004 C 288.288 380.258,291.916 376.676,292.547 376.043 C 293.475 375.113,306.178 362.403,309.290 359.290 C 309.730 358.850,313.421 355.161,317.492 351.092 C 321.563 347.023,325.434 343.154,326.094 342.494 C 327.654 340.934,340.934 327.654,342.494 326.094 C 343.154 325.434,346.998 321.588,351.037 317.547 C 359.932 308.647,358.526 310.054,367.492 301.092 C 371.563 297.023,375.434 293.154,376.094 292.494 C 376.754 291.834,380.444 288.144,384.294 284.294 C 388.144 280.444,391.814 276.778,392.450 276.147 C 393.087 275.516,394.676 273.875,395.981 272.500 C 397.287 271.125,398.530 270.000,398.742 270.000 C 398.955 270.000,399.078 269.685,399.016 269.300 C 398.954 268.915,399.082 268.375,399.300 268.100 C 399.567 267.764,399.559 267.600,399.274 267.600 C 399.041 267.600,398.876 267.252,398.908 266.828 C 398.940 266.403,399.090 266.132,399.241 266.225 C 400.002 266.696,400.258 263.618,399.520 262.880 C 399.147 262.507,399.154 262.400,399.554 262.400 C 400.284 262.400,399.845 241.311,399.100 240.566 C 398.935 240.402,398.800 239.227,398.800 237.957 C 398.800 236.687,398.620 235.536,398.400 235.400 C 398.180 235.264,398.000 234.263,398.000 233.176 C 398.000 232.089,397.820 231.200,397.600 231.200 C 397.380 231.200,397.200 230.480,397.200 229.600 C 397.200 228.720,397.020 228.000,396.800 228.000 C 396.580 228.000,396.400 227.370,396.400 226.600 C 396.400 225.830,396.220 225.200,396.000 225.200 C 395.780 225.200,395.600 224.570,395.600 223.800 C 395.600 223.030,395.420 222.400,395.200 222.400 C 394.980 222.400,394.800 221.871,394.800 221.224 C 394.800 220.577,394.620 219.936,394.400 219.800 C 394.180 219.664,394.000 219.113,394.000 218.576 C 394.000 218.039,393.820 217.600,393.600 217.600 C 393.380 217.600,393.200 216.970,393.200 216.200 C 393.200 215.430,393.020 214.800,392.800 214.800 C 392.580 214.800,392.400 214.350,392.400 213.800 C 392.400 213.250,392.220 212.800,392.000 212.800 C 391.780 212.800,391.600 212.350,391.600 211.800 C 391.600 211.250,391.420 210.800,391.200 210.800 C 390.980 210.800,390.800 210.476,390.800 210.080 C 390.800 209.684,390.584 209.144,390.320 208.880 C 390.056 208.616,389.955 208.400,390.096 208.400 C 390.237 208.400,390.102 207.918,389.797 207.329 C 389.491 206.739,389.332 206.109,389.444 205.929 C 389.556 205.748,389.457 205.600,389.224 205.600 C 388.991 205.600,388.800 205.240,388.800 204.800 C 388.800 204.360,388.620 204.000,388.400 204.000 C 388.180 204.000,388.000 203.651,388.000 203.224 C 388.000 202.797,387.820 202.336,387.600 202.200 C 387.380 202.064,387.200 201.603,387.200 201.176 C 387.200 200.749,387.020 200.400,386.800 200.400 C 386.580 200.400,386.400 200.203,386.400 199.963 C 386.400 199.723,386.040 199.069,385.600 198.509 C 385.160 197.950,384.800 197.156,384.800 196.746 C 384.800 196.336,384.620 196.000,384.400 196.000 C 384.180 196.000,384.000 195.680,384.000 195.288 C 384.000 194.897,383.640 194.317,383.200 194.000 C 382.760 193.683,382.400 193.103,382.400 192.712 C 382.400 192.320,382.220 192.000,382.000 192.000 C 381.780 192.000,381.600 191.807,381.600 191.572 C 381.600 191.337,381.060 190.359,380.400 189.400 C 379.740 188.441,379.200 187.470,379.200 187.242 C 379.200 187.014,378.840 186.635,378.400 186.400 C 377.960 186.165,377.600 185.718,377.600 185.409 C 377.600 185.099,377.195 184.562,376.700 184.215 C 376.205 183.868,375.859 183.458,375.930 183.302 C 376.002 183.147,375.867 182.956,375.630 182.877 C 375.394 182.798,375.200 182.850,375.200 182.993 " stroke="none" fill="#8cebbb" fill-rule="evenodd"></path><path id="path2" d="M318.952 138.581 C 318.829 138.900,318.850 139.357,318.997 139.595 C 320.683 142.323,322.137 165.892,321.404 178.600 C 320.814 188.830,319.669 196.545,317.190 207.000 C 316.721 208.980,316.190 211.050,316.010 211.600 C 315.830 212.150,315.287 213.950,314.803 215.600 C 311.722 226.097,306.765 237.893,301.652 246.900 C 301.183 247.725,300.467 248.985,300.060 249.700 C 297.228 254.675,291.990 262.513,288.900 266.400 C 287.938 267.610,286.936 268.870,286.674 269.200 C 281.774 275.369,273.195 284.478,268.000 289.030 C 262.868 293.527,253.390 300.838,251.185 302.000 C 250.643 302.286,250.110 302.634,250.000 302.774 C 249.813 303.013,244.362 306.458,242.600 307.451 C 234.082 312.254,228.105 315.164,221.200 317.870 C 218.670 318.861,216.240 319.824,215.800 320.010 C 214.040 320.752,206.347 323.122,202.200 324.198 C 189.280 327.553,173.144 329.583,159.300 329.596 C 154.907 329.600,153.795 330.411,156.000 332.000 C 156.440 332.317,156.800 332.897,156.800 333.288 C 156.800 333.680,156.980 334.000,157.200 334.000 C 157.420 334.000,157.600 334.270,157.600 334.600 C 157.600 334.930,157.780 335.200,158.000 335.200 C 158.220 335.200,158.400 335.374,158.400 335.587 C 158.400 336.173,161.374 340.370,163.193 342.351 C 164.077 343.313,164.800 344.255,164.800 344.443 C 164.800 344.631,165.970 345.955,167.400 347.385 C 168.830 348.815,170.000 350.269,170.000 350.616 C 170.000 350.963,170.180 351.136,170.400 351.000 C 170.620 350.864,170.800 350.949,170.800 351.189 C 170.800 351.429,171.205 351.789,171.700 351.988 C 172.195 352.187,172.364 352.361,172.075 352.375 C 171.424 352.406,177.952 358.800,178.634 358.800 C 178.760 358.800,179.561 359.527,180.415 360.416 C 181.269 361.304,182.065 362.024,182.184 362.016 C 183.014 361.956,183.216 362.050,183.001 362.398 C 182.866 362.617,183.215 363.006,183.777 363.263 C 184.340 363.519,184.800 363.890,184.800 364.088 C 184.800 364.285,184.980 364.336,185.200 364.200 C 185.420 364.064,185.600 364.156,185.600 364.405 C 185.600 365.190,186.703 366.000,187.771 366.000 C 188.440 366.000,188.800 366.220,188.800 366.629 C 188.800 366.974,189.057 367.514,189.371 367.829 C 189.996 368.453,191.600 368.612,191.600 368.050 C 191.600 367.858,192.029 367.700,192.554 367.700 C 193.470 367.700,196.090 365.308,205.648 355.749 C 209.554 351.842,219.659 341.737,222.498 338.898 C 223.818 337.578,227.508 333.888,230.698 330.698 C 233.888 327.508,237.578 323.818,238.898 322.498 C 240.218 321.178,243.908 317.488,247.098 314.298 C 254.361 307.036,257.036 304.361,264.298 297.098 C 267.488 293.908,271.178 290.218,272.498 288.898 C 273.818 287.578,277.508 283.888,280.698 280.698 C 283.888 277.508,287.578 273.818,288.898 272.498 C 290.218 271.178,293.908 267.488,297.098 264.298 C 304.357 257.039,306.938 254.459,314.196 247.200 C 317.386 244.010,321.098 240.297,322.447 238.949 C 323.795 237.601,327.508 233.888,330.698 230.698 C 333.888 227.508,337.578 223.818,338.898 222.498 C 340.218 221.178,343.908 217.488,347.098 214.298 C 350.288 211.108,354.158 207.238,355.698 205.698 C 357.238 204.158,361.081 200.311,364.238 197.149 C 367.394 193.987,371.018 190.410,372.291 189.200 C 375.416 186.229,376.157 185.041,375.571 183.945 C 375.226 183.300,375.235 183.026,375.610 182.794 C 375.881 182.626,375.977 182.286,375.824 182.038 C 375.670 181.790,375.349 181.708,375.111 181.855 C 374.842 182.021,374.792 181.936,374.980 181.632 C 375.156 181.348,374.950 180.774,374.492 180.270 C 374.056 179.792,373.491 178.995,373.236 178.500 C 372.981 178.005,372.508 177.600,372.186 177.600 C 371.864 177.600,371.600 177.413,371.600 177.184 C 371.600 176.511,369.966 174.427,367.500 171.958 C 366.235 170.691,365.200 169.552,365.200 169.427 C 365.200 169.302,364.885 168.853,364.500 168.429 C 364.115 168.004,363.588 167.419,363.329 167.129 C 363.070 166.838,362.141 165.970,361.266 165.200 C 360.390 164.430,358.455 162.585,356.965 161.100 C 355.476 159.615,354.005 158.400,353.697 158.400 C 353.389 158.400,352.446 157.680,351.600 156.800 C 350.754 155.920,349.854 155.200,349.600 155.200 C 349.346 155.200,348.446 154.480,347.600 153.600 C 346.754 152.720,345.818 152.000,345.520 152.000 C 345.221 152.000,344.717 151.640,344.400 151.200 C 344.083 150.760,343.543 150.400,343.200 150.400 C 342.857 150.400,342.317 150.040,342.000 149.600 C 341.683 149.160,341.193 148.800,340.912 148.800 C 340.630 148.800,340.400 148.641,340.400 148.447 C 340.400 148.252,340.085 147.993,339.700 147.871 C 338.866 147.607,336.833 146.392,336.110 145.726 C 335.827 145.466,335.236 145.138,334.798 144.999 C 334.359 144.860,334.000 144.578,334.000 144.373 C 334.000 144.168,333.733 144.000,333.406 144.000 C 333.080 144.000,331.782 143.473,330.523 142.828 C 329.264 142.183,328.091 141.744,327.917 141.851 C 327.743 141.959,327.600 141.857,327.600 141.624 C 327.600 141.391,327.240 141.200,326.800 141.200 C 326.360 141.200,326.000 141.020,326.000 140.800 C 326.000 140.580,325.730 140.400,325.400 140.400 C 325.070 140.400,324.800 140.220,324.800 140.000 C 324.800 139.780,324.440 139.600,324.000 139.600 C 323.560 139.600,323.200 139.420,323.200 139.200 C 323.200 138.980,322.840 138.800,322.400 138.800 C 321.960 138.800,321.600 138.620,321.600 138.400 C 321.600 137.766,319.202 137.930,318.952 138.581 M376.394 183.963 C 376.941 184.393,377.457 184.676,377.542 184.592 C 377.778 184.356,376.655 183.414,375.990 183.290 C 375.666 183.229,375.847 183.532,376.394 183.963 M399.600 266.024 C 399.600 266.257,399.457 266.359,399.283 266.251 C 399.109 266.144,398.940 266.403,398.908 266.828 C 398.876 267.252,399.041 267.600,399.274 267.600 C 399.559 267.600,399.567 267.764,399.300 268.100 C 399.082 268.375,398.954 268.915,399.016 269.300 C 399.078 269.685,398.955 270.000,398.742 270.000 C 398.530 270.000,397.287 271.125,395.981 272.500 C 394.676 273.875,393.087 275.516,392.450 276.147 C 391.814 276.778,388.120 280.468,384.241 284.347 C 380.361 288.226,376.671 291.916,376.041 292.547 C 375.410 293.178,371.563 297.023,367.492 301.092 C 358.537 310.043,360.043 308.537,351.092 317.492 C 347.023 321.563,343.154 325.434,342.494 326.094 C 341.834 326.754,338.144 330.444,334.294 334.294 C 330.444 338.144,326.754 341.834,326.094 342.494 C 325.434 343.154,321.563 347.023,317.492 351.092 C 313.421 355.161,309.730 358.850,309.290 359.290 C 308.850 359.730,305.161 363.421,301.092 367.492 C 297.023 371.563,293.154 375.434,292.494 376.094 C 291.834 376.754,288.123 380.424,284.247 384.250 C 280.371 388.075,277.200 391.476,277.200 391.806 C 277.200 392.490,280.650 392.566,281.067 391.892 C 281.199 391.679,281.441 391.743,281.624 392.039 C 281.876 392.447,282.154 392.462,282.874 392.107 C 283.383 391.857,285.240 391.557,287.000 391.442 C 288.760 391.326,290.830 391.119,291.600 390.981 C 292.370 390.843,293.900 390.637,295.000 390.524 C 296.100 390.410,297.250 390.113,297.556 389.864 C 297.861 389.614,298.813 389.446,299.670 389.490 C 300.586 389.537,301.131 389.411,300.991 389.185 C 300.850 388.958,301.573 388.800,302.753 388.800 C 303.853 388.800,304.864 388.620,305.000 388.400 C 305.136 388.180,306.126 388.000,307.200 388.000 C 308.274 388.000,309.264 387.820,309.400 387.600 C 309.536 387.380,310.547 387.200,311.647 387.200 C 313.141 387.200,313.571 387.073,313.347 386.700 C 313.172 386.409,313.361 386.450,313.800 386.800 C 314.239 387.150,314.428 387.191,314.253 386.900 C 314.025 386.521,314.568 386.400,316.496 386.400 C 317.895 386.400,319.211 386.233,319.420 386.029 C 319.810 385.648,323.196 385.340,331.100 384.965 C 333.575 384.848,335.600 384.582,335.600 384.376 C 335.600 384.145,345.124 384.000,360.200 384.000 C 376.333 384.000,384.800 383.862,384.800 383.600 C 384.800 383.380,385.072 383.200,385.405 383.200 C 386.744 383.200,390.400 380.160,390.400 379.047 C 390.400 378.728,390.625 378.392,390.900 378.300 C 391.292 378.170,391.424 372.565,391.511 352.467 C 391.582 336.199,391.765 326.800,392.011 326.800 C 392.238 326.800,392.400 325.060,392.400 322.624 C 392.400 320.271,392.575 318.339,392.800 318.200 C 393.020 318.064,393.200 316.433,393.200 314.576 C 393.200 312.592,393.365 311.200,393.600 311.200 C 393.826 311.200,394.000 310.067,394.000 308.600 C 394.000 307.133,394.174 306.000,394.400 306.000 C 394.622 306.000,394.800 304.933,394.800 303.600 C 394.800 302.267,394.978 301.200,395.200 301.200 C 395.420 301.200,395.600 300.199,395.600 298.976 C 395.600 297.596,395.752 296.847,396.000 297.000 C 396.246 297.152,396.400 296.479,396.400 295.247 C 396.400 294.147,396.580 293.136,396.800 293.000 C 397.020 292.864,397.200 291.964,397.200 291.000 C 397.200 290.036,397.380 289.136,397.600 289.000 C 397.820 288.864,398.000 287.953,398.000 286.976 C 398.000 285.999,398.149 285.200,398.332 285.200 C 398.514 285.200,398.705 284.169,398.756 282.909 C 398.807 281.648,398.973 280.523,399.124 280.409 C 399.619 280.035,400.286 265.600,399.809 265.600 C 399.694 265.600,399.600 265.791,399.600 266.024 M195.600 371.904 C 195.600 372.071,195.960 372.432,196.400 372.707 C 197.330 373.288,197.454 372.997,196.629 372.171 C 195.998 371.541,195.600 371.437,195.600 371.904 M198.800 373.957 C 198.800 374.154,199.040 374.407,199.333 374.519 C 199.627 374.632,199.867 374.471,199.867 374.162 C 199.867 373.853,199.627 373.600,199.333 373.600 C 199.040 373.600,198.800 373.761,198.800 373.957 M241.600 390.400 C 241.930 390.613,242.470 390.788,242.800 390.788 C 243.333 390.788,243.333 390.745,242.800 390.400 C 242.470 390.187,241.930 390.012,241.600 390.012 C 241.067 390.012,241.067 390.055,241.600 390.400 M245.600 391.200 C 247.036 391.660,247.684 391.660,247.400 391.200 C 247.264 390.980,246.578 390.818,245.876 390.840 C 244.657 390.878,244.645 390.894,245.600 391.200 M275.232 391.900 C 275.252 392.345,275.339 392.412,275.470 392.083 C 275.630 391.687,275.808 391.675,276.239 392.032 C 276.681 392.399,276.800 392.360,276.800 391.849 C 276.800 391.467,276.471 391.200,276.000 391.200 C 275.493 391.200,275.212 391.456,275.232 391.900 M267.822 392.364 C 267.588 392.743,266.955 392.817,265.549 392.631 C 264.342 392.471,263.600 392.525,263.600 392.773 C 263.600 393.016,265.141 393.162,267.500 393.143 C 269.645 393.126,271.130 393.015,270.800 392.896 C 270.470 392.777,270.068 392.482,269.906 392.240 C 269.703 391.936,269.610 391.954,269.606 392.300 C 269.598 392.939,268.519 392.956,268.307 392.320 C 268.187 391.962,268.064 391.973,267.822 392.364 M272.900 392.276 C 273.285 392.376,273.915 392.376,274.300 392.276 C 274.685 392.175,274.370 392.093,273.600 392.093 C 272.830 392.093,272.515 392.175,272.900 392.276 " stroke="none" fill="#7be1af" fill-rule="evenodd"></path><path id="path3" d="M79.000 152.981 C 63.295 157.655,55.983 173.777,63.026 188.200 C 68.241 198.881,82.606 204.649,93.400 200.397 C 116.566 191.270,114.922 159.308,90.954 152.844 C 88.837 152.273,81.079 152.362,79.000 152.981 M150.200 152.785 C 149.760 152.966,148.590 153.351,147.600 153.639 C 128.609 159.167,125.009 186.356,141.800 197.438 C 165.707 213.216,192.511 183.260,174.448 160.949 C 169.269 154.552,156.406 150.221,150.200 152.785 M219.800 153.041 C 203.427 157.475,196.215 176.727,205.654 190.800 C 216.696 207.262,242.110 204.411,249.088 185.927 C 254.125 172.587,247.002 157.514,233.800 153.575 C 232.920 153.312,231.787 152.941,231.281 152.749 C 229.900 152.225,222.080 152.423,219.800 153.041 " stroke="none" fill="#fafbfc" fill-rule="evenodd"></path><path id="path4" d="M158.400 7.200 C 158.400 7.451,155.875 7.600,151.624 7.600 C 147.537 7.600,144.749 7.759,144.600 8.000 C 144.464 8.220,142.953 8.400,141.243 8.400 C 139.533 8.400,138.011 8.522,137.861 8.672 C 137.711 8.822,136.623 8.978,135.442 9.019 C 134.262 9.060,133.058 9.241,132.766 9.421 C 132.475 9.601,131.509 9.788,130.618 9.836 C 129.728 9.884,127.830 10.226,126.400 10.595 C 123.371 11.376,122.725 11.518,120.696 11.845 C 119.869 11.979,119.094 12.249,118.973 12.444 C 118.852 12.640,118.371 12.800,117.905 12.800 C 117.125 12.800,115.392 13.266,113.400 14.010 C 111.676 14.654,108.985 15.392,108.700 15.299 C 108.535 15.244,108.400 15.380,108.400 15.600 C 108.400 15.820,108.038 16.000,107.595 16.000 C 107.152 16.000,106.432 16.180,105.995 16.400 C 105.558 16.620,104.842 16.980,104.405 17.200 C 103.968 17.420,103.263 17.600,102.839 17.600 C 102.414 17.600,102.007 17.778,101.933 17.997 C 101.860 18.215,101.305 18.434,100.700 18.484 C 100.095 18.534,99.600 18.671,99.600 18.790 C 99.600 18.982,98.799 19.357,96.200 20.383 C 94.342 21.116,91.390 22.622,91.267 22.900 C 91.193 23.065,90.688 23.200,90.143 23.200 C 89.585 23.200,89.261 23.374,89.400 23.600 C 89.541 23.828,89.196 24.000,88.600 24.000 C 88.004 24.000,87.659 24.172,87.800 24.400 C 87.936 24.620,87.758 24.800,87.404 24.800 C 87.050 24.800,86.184 25.107,85.480 25.483 C 84.776 25.859,84.110 26.189,84.000 26.217 C 83.399 26.368,81.582 27.360,80.000 28.400 C 79.010 29.051,77.840 29.748,77.400 29.948 C 76.960 30.149,75.659 30.963,74.510 31.756 C 73.360 32.550,72.301 33.200,72.157 33.200 C 72.012 33.200,71.603 33.516,71.247 33.903 C 70.891 34.289,70.105 34.860,69.500 35.170 C 68.895 35.481,68.400 35.885,68.400 36.068 C 68.400 36.250,68.080 36.400,67.688 36.400 C 67.297 36.400,66.717 36.760,66.400 37.200 C 66.083 37.640,65.609 38.000,65.346 38.000 C 65.083 38.000,64.259 38.585,63.514 39.300 C 62.769 40.015,61.654 40.960,61.036 41.400 C 60.417 41.840,59.703 42.396,59.449 42.636 C 59.194 42.875,58.768 43.145,58.502 43.236 C 58.008 43.403,55.533 45.589,51.180 49.700 C 49.841 50.965,48.578 52.000,48.373 52.000 C 48.168 52.000,47.998 52.135,47.996 52.300 C 47.990 52.763,44.042 56.800,43.595 56.800 C 43.378 56.800,43.200 56.937,43.200 57.104 C 43.200 57.271,42.795 57.856,42.299 58.404 C 41.804 58.952,40.881 60.030,40.248 60.800 C 39.616 61.570,38.266 63.113,37.249 64.229 C 36.232 65.345,34.950 66.858,34.400 67.592 C 33.850 68.326,33.220 69.128,33.000 69.373 C 32.019 70.469,30.080 73.112,29.386 74.300 C 28.969 75.015,28.508 75.600,28.362 75.600 C 28.216 75.600,27.873 76.140,27.600 76.800 C 27.327 77.460,26.989 78.000,26.849 78.000 C 26.709 78.000,25.799 79.350,24.826 81.000 C 23.854 82.650,22.910 84.000,22.729 84.000 C 22.548 84.000,22.400 84.360,22.400 84.800 C 22.400 85.240,22.220 85.600,22.000 85.600 C 21.780 85.600,21.600 85.960,21.600 86.400 C 21.600 86.840,21.420 87.200,21.200 87.200 C 20.980 87.200,20.800 87.470,20.800 87.800 C 20.800 88.130,20.654 88.400,20.475 88.400 C 20.296 88.400,19.902 89.030,19.600 89.800 C 19.298 90.570,18.904 91.200,18.725 91.200 C 18.546 91.200,18.400 91.449,18.400 91.754 C 18.400 92.584,17.360 94.427,17.061 94.127 C 16.917 93.984,16.800 94.113,16.800 94.415 C 16.800 94.716,15.987 96.635,14.993 98.678 C 13.999 100.721,13.226 102.440,13.274 102.496 C 13.323 102.553,13.073 103.140,12.718 103.800 C 11.652 105.779,10.800 107.882,10.800 108.532 C 10.800 108.868,10.509 109.434,10.152 109.790 C 9.796 110.147,9.601 110.534,9.718 110.652 C 9.836 110.769,9.591 111.615,9.175 112.533 C 8.758 113.450,8.414 114.605,8.409 115.100 C 8.404 115.595,8.220 116.000,8.000 116.000 C 7.780 116.000,7.600 116.630,7.600 117.400 C 7.600 118.170,7.420 118.800,7.200 118.800 C 6.980 118.800,6.800 119.250,6.800 119.800 C 6.800 120.350,6.620 120.800,6.400 120.800 C 6.180 120.800,6.000 121.520,6.000 122.400 C 6.000 123.280,5.820 124.000,5.600 124.000 C 5.380 124.000,5.200 124.540,5.200 125.200 C 5.200 125.860,5.038 126.400,4.840 126.400 C 4.642 126.400,4.381 127.165,4.259 128.100 C 3.834 131.360,3.509 132.809,3.156 133.027 C 2.960 133.148,2.800 134.036,2.800 135.000 C 2.800 135.964,2.620 136.864,2.400 137.000 C 2.180 137.136,2.000 138.126,2.000 139.200 C 2.000 140.274,1.820 141.264,1.600 141.400 C 1.380 141.536,1.200 142.681,1.200 143.944 C 1.200 145.233,0.983 146.457,0.706 146.734 C 0.088 147.352,-0.134 182.372,0.447 187.600 C 0.655 189.470,0.925 192.125,1.047 193.500 C 1.168 194.875,1.433 196.000,1.634 196.000 C 1.835 196.000,2.000 196.864,2.000 197.920 C 2.000 198.976,2.165 200.011,2.367 200.220 C 2.569 200.429,2.788 201.320,2.853 202.200 C 2.918 203.080,3.102 203.894,3.262 204.009 C 3.423 204.124,3.598 205.069,3.652 206.109 C 3.705 207.149,3.896 208.000,4.075 208.000 C 4.254 208.000,4.400 208.709,4.400 209.576 C 4.400 210.443,4.580 211.264,4.800 211.400 C 5.020 211.536,5.200 212.526,5.200 213.600 C 5.200 214.674,5.380 215.664,5.600 215.800 C 5.820 215.936,6.000 216.937,6.000 218.024 C 6.000 219.111,6.180 220.000,6.400 220.000 C 6.626 220.000,6.800 221.141,6.800 222.624 C 6.800 224.114,6.959 225.149,7.167 225.020 C 7.520 224.802,7.763 226.818,8.238 233.900 C 8.359 235.715,8.581 237.200,8.729 237.201 C 8.878 237.201,9.027 238.844,9.059 240.852 C 9.092 242.860,9.272 244.614,9.459 244.751 C 9.647 244.888,9.783 247.430,9.762 250.400 C 9.741 253.370,9.904 256.520,10.125 257.400 C 10.345 258.280,10.553 261.070,10.586 263.600 C 10.619 266.130,10.708 273.150,10.783 279.200 C 10.858 285.250,10.995 289.702,11.087 289.093 C 11.179 288.484,11.413 288.084,11.606 288.204 C 11.905 288.389,17.475 283.137,25.400 275.197 C 27.059 273.535,35.211 265.380,42.096 258.496 C 42.976 257.616,46.666 253.926,50.296 250.296 C 53.926 246.666,57.616 242.976,58.496 242.096 C 61.199 239.392,73.179 227.415,75.297 225.297 C 81.413 219.184,85.600 214.763,85.600 214.418 C 85.600 214.058,85.126 213.482,81.855 209.866 C 81.225 209.170,78.465 206.290,75.722 203.467 C 70.467 198.059,69.966 197.243,72.987 199.013 C 74.004 199.609,74.930 200.004,75.044 199.890 C 75.158 199.775,74.421 199.267,73.405 198.760 C 58.243 191.187,55.897 169.002,69.110 158.129 C 78.536 150.372,91.594 150.319,101.107 158.000 C 102.333 158.990,104.152 161.009,105.148 162.487 C 106.144 163.965,107.039 165.094,107.137 164.997 C 107.234 164.899,107.091 164.551,106.819 164.223 C 104.739 161.717,107.464 163.602,111.245 167.285 C 118.334 174.191,122.178 177.600,122.878 177.600 C 123.178 177.600,125.959 174.820,128.914 171.564 C 130.662 169.638,131.121 169.751,130.464 171.944 C 127.947 180.345,133.805 193.701,141.951 198.135 C 144.600 199.577,144.582 199.257,141.917 197.547 C 125.016 186.702,128.580 159.167,147.600 153.640 C 148.590 153.352,149.813 152.955,150.319 152.758 C 152.130 152.052,159.672 152.337,162.434 153.217 C 170.740 155.863,175.126 160.059,179.140 169.200 C 179.562 170.163,179.570 170.155,179.339 169.000 C 179.095 167.777,176.517 162.601,175.539 161.372 C 173.132 158.346,169.433 155.285,166.800 154.141 C 163.207 152.581,162.532 152.351,160.200 151.894 C 157.914 151.445,153.488 151.405,150.700 151.807 C 148.181 152.170,148.176 152.178,152.900 147.587 C 155.155 145.395,157.697 142.903,158.548 142.049 C 159.399 141.195,163.066 137.526,166.696 133.896 C 174.864 125.730,175.730 124.864,183.896 116.696 C 187.526 113.066,191.216 109.376,192.096 108.496 C 192.976 107.616,196.666 103.926,200.296 100.296 C 203.926 96.666,207.592 92.999,208.443 92.148 C 209.295 91.297,212.985 87.607,216.644 83.948 C 224.876 75.717,225.742 74.852,233.844 66.748 C 237.445 63.147,241.135 59.457,242.043 58.548 C 242.952 57.639,246.632 53.949,250.221 50.348 C 253.810 46.747,257.321 43.305,258.023 42.700 C 258.726 42.095,259.094 41.600,258.842 41.600 C 258.580 41.600,258.457 41.199,258.554 40.663 C 258.700 39.857,258.589 39.751,257.762 39.909 C 256.998 40.055,256.800 39.924,256.800 39.270 C 256.800 38.818,256.592 38.319,256.338 38.162 C 256.080 38.002,255.984 38.051,256.121 38.272 C 256.255 38.489,256.128 38.667,255.838 38.667 C 255.548 38.667,255.331 38.382,255.356 38.034 C 255.382 37.663,255.026 37.347,254.499 37.272 C 254.004 37.202,253.412 36.797,253.185 36.372 C 252.958 35.947,252.515 35.600,252.200 35.600 C 251.885 35.600,251.427 35.225,251.182 34.766 C 250.936 34.307,250.628 34.039,250.497 34.169 C 250.366 34.300,249.841 34.014,249.330 33.534 C 248.818 33.054,248.400 32.789,248.400 32.946 C 248.400 33.104,247.953 32.818,247.407 32.312 C 246.861 31.805,245.556 30.943,244.508 30.396 C 243.459 29.848,242.363 29.130,242.071 28.800 C 241.700 28.380,241.627 28.366,241.827 28.754 C 242.004 29.095,241.668 29.001,240.957 28.512 C 238.762 27.000,237.399 26.222,237.100 26.311 C 236.935 26.360,236.800 26.220,236.800 26.000 C 236.800 25.780,236.575 25.590,236.300 25.577 C 235.400 25.535,231.978 23.755,232.259 23.474 C 232.410 23.323,232.064 23.200,231.490 23.200 C 230.917 23.200,230.336 23.020,230.200 22.800 C 230.064 22.580,229.686 22.400,229.360 22.400 C 229.033 22.400,228.380 22.040,227.908 21.600 C 227.436 21.160,226.633 20.800,226.125 20.800 C 225.616 20.800,225.200 20.620,225.200 20.400 C 225.200 20.180,224.840 20.000,224.400 20.000 C 223.960 20.000,223.600 19.820,223.600 19.600 C 223.600 19.380,223.276 19.200,222.880 19.200 C 222.484 19.200,221.989 19.057,221.780 18.882 C 221.571 18.707,220.680 18.331,219.800 18.048 C 218.920 17.765,217.437 17.188,216.504 16.766 C 215.572 16.345,214.367 16.000,213.828 16.000 C 213.289 16.000,212.751 15.845,212.634 15.655 C 212.517 15.465,211.561 15.079,210.510 14.796 C 209.460 14.513,208.429 14.129,208.220 13.941 C 208.011 13.753,207.483 13.600,207.047 13.600 C 206.610 13.600,205.251 13.257,204.027 12.837 C 202.802 12.418,201.080 11.937,200.200 11.769 C 199.320 11.600,198.510 11.435,198.400 11.401 C 198.290 11.368,197.300 11.182,196.200 10.990 C 195.100 10.797,194.110 10.616,194.000 10.587 C 193.890 10.558,193.350 10.412,192.800 10.262 C 192.250 10.113,191.252 9.936,190.582 9.869 C 189.912 9.803,189.125 9.601,188.834 9.421 C 188.542 9.241,187.338 9.060,186.158 9.019 C 184.977 8.978,183.889 8.822,183.739 8.672 C 183.589 8.522,182.057 8.400,180.333 8.400 C 178.610 8.400,177.200 8.237,177.200 8.038 C 177.200 7.838,174.492 7.651,171.183 7.621 C 167.873 7.591,164.711 7.394,164.157 7.184 C 162.822 6.676,158.400 6.689,158.400 7.200 M222.800 152.014 C 221.370 152.162,219.120 152.685,217.800 153.177 C 216.480 153.668,215.085 154.165,214.700 154.282 C 214.315 154.398,214.000 154.652,214.000 154.847 C 214.000 155.041,213.764 155.200,213.475 155.200 C 213.187 155.200,212.564 155.560,212.092 156.000 C 211.620 156.440,211.119 156.800,210.979 156.800 C 210.581 156.800,206.000 161.296,206.000 161.686 C 206.000 161.877,205.664 162.394,205.254 162.834 C 204.582 163.555,203.230 166.077,202.377 168.200 C 199.903 174.357,200.587 183.411,203.957 189.127 C 206.706 193.789,212.066 198.627,215.800 199.816 C 216.240 199.956,215.629 199.516,214.442 198.839 C 209.626 196.089,205.598 191.858,203.743 187.600 C 201.913 183.399,201.600 181.853,201.600 177.000 C 201.600 170.993,202.495 167.940,205.651 163.179 C 210.842 155.346,224.009 149.988,231.281 152.749 C 231.787 152.941,232.920 153.312,233.800 153.575 C 239.777 155.358,244.595 159.482,248.082 165.800 C 248.689 166.900,249.189 167.637,249.193 167.438 C 249.213 166.416,245.972 161.537,243.836 159.376 C 237.979 153.451,231.348 151.131,222.800 152.014 M108.173 167.800 C 111.230 176.208,110.244 184.413,105.351 191.300 C 104.609 192.345,104.139 193.200,104.307 193.200 C 104.745 193.200,107.750 188.459,108.363 186.800 C 108.648 186.030,109.019 185.040,109.187 184.600 C 110.408 181.409,110.779 175.738,109.968 172.646 C 108.922 168.654,108.638 167.776,108.272 167.400 C 108.018 167.139,107.983 167.278,108.173 167.800 M179.680 171.000 C 179.680 171.440,179.824 172.250,180.000 172.800 C 180.254 173.592,180.320 173.633,180.320 173.000 C 180.320 172.560,180.176 171.750,180.000 171.200 C 179.746 170.408,179.680 170.367,179.680 171.000 M250.056 171.000 C 250.056 171.440,250.211 172.160,250.400 172.600 L 250.744 173.400 250.744 172.600 C 250.744 172.160,250.589 171.440,250.400 171.000 L 250.056 170.200 250.056 171.000 M180.537 177.000 C 180.539 178.760,180.609 179.430,180.693 178.489 C 180.778 177.549,180.777 176.109,180.691 175.289 C 180.605 174.470,180.536 175.240,180.537 177.000 M250.920 177.200 C 250.920 178.410,250.995 178.905,251.087 178.300 C 251.178 177.695,251.178 176.705,251.087 176.100 C 250.995 175.495,250.920 175.990,250.920 177.200 M179.825 182.000 C 179.315 184.863,178.058 187.850,176.197 190.626 C 175.248 192.042,174.593 193.200,174.742 193.200 C 175.074 193.200,177.196 189.980,178.309 187.788 C 179.371 185.694,180.501 181.789,180.302 180.898 C 180.216 180.514,180.002 181.010,179.825 182.000 M250.200 182.000 C 250.048 182.691,250.014 183.347,250.124 183.457 C 250.234 183.567,250.448 183.091,250.600 182.400 C 250.752 181.709,250.786 181.053,250.676 180.943 C 250.566 180.833,250.352 181.309,250.200 182.000 M247.868 188.573 C 246.466 191.250,242.879 195.620,241.470 196.368 C 240.882 196.680,240.400 197.100,240.400 197.301 C 240.400 197.850,243.383 195.379,245.024 193.472 C 246.496 191.760,249.416 186.883,249.136 186.603 C 249.051 186.517,248.480 187.404,247.868 188.573 M102.400 194.747 C 101.260 196.018,97.471 198.706,96.045 199.255 C 95.519 199.457,95.193 199.727,95.321 199.854 C 95.719 200.252,99.698 197.743,102.000 195.643 C 103.210 194.539,104.020 193.635,103.800 193.634 C 103.580 193.632,102.950 194.133,102.400 194.747 M172.800 194.772 C 171.654 196.034,167.861 198.710,166.445 199.255 C 165.919 199.457,165.593 199.727,165.721 199.854 C 166.119 200.252,170.098 197.743,172.400 195.643 C 173.610 194.539,174.420 193.644,174.200 193.654 C 173.980 193.663,173.350 194.166,172.800 194.772 M238.700 198.229 C 238.095 198.557,237.600 198.910,237.600 199.013 C 237.600 199.399,238.232 199.157,239.200 198.400 C 240.389 197.470,240.211 197.409,238.700 198.229 M76.743 200.651 C 77.481 200.973,78.651 201.322,79.343 201.426 C 80.132 201.545,79.780 201.318,78.400 200.819 C 75.858 199.899,74.765 199.788,76.743 200.651 M146.400 200.400 C 146.730 200.613,147.270 200.788,147.600 200.788 C 148.133 200.788,148.133 200.745,147.600 200.400 C 147.270 200.187,146.730 200.012,146.400 200.012 C 145.867 200.012,145.867 200.055,146.400 200.400 M163.600 200.400 C 163.067 200.745,163.067 200.788,163.600 200.788 C 163.930 200.788,164.470 200.613,164.800 200.400 C 165.333 200.055,165.333 200.012,164.800 200.012 C 164.470 200.012,163.930 200.187,163.600 200.400 M234.000 200.400 C 233.467 200.745,233.467 200.788,234.000 200.788 C 234.330 200.788,234.870 200.613,235.200 200.400 C 235.733 200.055,235.733 200.012,235.200 200.012 C 234.870 200.012,234.330 200.187,234.000 200.400 M90.600 201.200 L 89.800 201.544 90.600 201.544 C 91.040 201.544,91.760 201.389,92.200 201.200 L 93.000 200.856 92.200 200.856 C 91.760 200.856,91.040 201.011,90.600 201.200 M149.000 201.200 C 149.440 201.389,150.070 201.544,150.400 201.544 C 150.778 201.544,150.704 201.417,150.200 201.200 C 149.760 201.011,149.130 200.856,148.800 200.856 C 148.422 200.856,148.496 200.983,149.000 201.200 M161.000 201.200 L 160.200 201.544 161.000 201.566 C 161.440 201.578,162.070 201.413,162.400 201.200 C 163.195 200.686,162.196 200.686,161.000 201.200 M219.400 201.200 C 219.840 201.389,220.560 201.544,221.000 201.544 L 221.800 201.544 221.000 201.200 C 220.560 201.011,219.840 200.856,219.400 200.856 L 218.600 200.856 219.400 201.200 M231.400 201.200 C 230.896 201.417,230.822 201.544,231.200 201.544 C 231.530 201.544,232.160 201.389,232.600 201.200 C 233.104 200.983,233.178 200.856,232.800 200.856 C 232.470 200.856,231.840 201.011,231.400 201.200 M83.269 202.063 C 84.649 202.285,86.295 202.284,87.469 202.059 C 89.166 201.734,88.891 201.690,85.200 201.693 C 81.267 201.696,81.144 201.720,83.269 202.063 M152.087 201.820 C 152.208 201.941,153.879 202.040,155.800 202.040 C 157.721 202.040,159.392 201.941,159.513 201.820 C 159.634 201.699,157.963 201.600,155.800 201.600 C 153.637 201.600,151.966 201.699,152.087 201.820 M224.512 201.895 C 225.564 201.977,227.184 201.976,228.112 201.892 C 229.040 201.808,228.180 201.741,226.200 201.742 C 224.220 201.743,223.460 201.812,224.512 201.895 " stroke="none" fill="#63e4fc" fill-rule="evenodd"></path></g></svg>
